<svg width="2500" height="753" viewBox="0 0 2500 753" fill="none" xmlns="http://www.w3.org/2000/svg">
<g clip-path="url(#clip0_155_328)">
<path d="M1046.09 309.602C1039.7 284.665 1023.58 266.412 991.96 266.412C945.395 266.412 925.93 307.472 925.93 349.121C925.93 390.771 945.395 431.863 991.96 431.863C1025.71 431.863 1044.39 406.631 1047.31 375.009H1084.43C1081.39 427.014 1044.59 462.896 991.96 462.896C926.848 462.896 887.918 411.186 887.918 349.121C887.918 287.057 926.848 235.38 991.96 235.38C1040.92 235.675 1079.55 262.742 1084.11 309.602H1046.09ZM1106.95 378.941C1106.95 330.902 1135.85 296.199 1186.35 296.199C1236.84 296.199 1265.71 330.902 1265.71 378.941C1265.71 426.981 1236.81 461.978 1186.35 461.978C1135.88 461.978 1106.95 427.308 1106.95 378.941ZM1231.04 378.941C1231.04 351.874 1217.35 323.594 1186.35 323.594C1155.35 323.594 1141.62 351.874 1141.62 378.941C1141.62 406.009 1155.31 434.649 1186.35 434.649C1217.38 434.649 1231.04 406.336 1231.04 378.941ZM1295.53 240.558H1330.2V273.327H1295.53V240.558ZM1295.53 300.459H1330.2V457.751H1295.53V300.459ZM1367.95 300.459H1400.72V323.594L1401.34 324.184C1406.32 315.627 1413.47 308.534 1422.07 303.62C1430.66 298.707 1440.4 296.147 1450.3 296.199C1484.38 296.199 1506.01 314.452 1506.01 349.744V457.882H1471.37V358.887C1470.75 334.244 1461.02 323.594 1440.63 323.594C1417.53 323.594 1402.62 341.847 1402.62 364.949V457.718H1367.95V300.459ZM1736.93 457.718H1712.58L1706.82 432.191C1686.43 455.293 1667.85 462.896 1641.28 462.896C1576.17 462.896 1537.24 411.186 1537.24 349.121C1537.24 287.057 1576.17 235.38 1641.28 235.38C1688.73 235.38 1728.58 260.612 1734.34 309.602H1697.38C1693.71 280.995 1668.77 266.412 1641.41 266.412C1594.88 266.412 1575.38 307.472 1575.38 349.121C1575.38 390.771 1594.88 431.863 1641.41 431.863C1680.34 432.486 1701.64 408.925 1702.23 372.256H1644.46V343.354H1736.93V457.718ZM1800.5 388.084C1800.5 412.726 1813.87 434.616 1842.78 434.616C1862.86 434.616 1875.02 425.801 1881.12 408.401H1913.88C1906.28 442.775 1877.09 461.913 1842.71 461.913C1793.56 461.913 1765.77 427.538 1765.77 379.171C1765.77 334.474 1794.97 296.134 1841.79 296.134C1891.37 296.134 1921.81 340.864 1916.01 387.887L1800.5 388.084ZM1881.41 365.146C1880.2 343.256 1865.29 323.496 1841.86 323.496C1817.84 323.496 1801.42 341.748 1800.5 365.146H1881.41ZM2048.73 353.087C2045.98 333.917 2031.98 323.594 2012.68 323.594C1994.76 323.594 1969.49 333.032 1969.49 380.776C1969.49 406.992 1981.06 434.616 2011.18 434.616C2031.26 434.616 2045.26 421.246 2048.6 398.734H2083.27C2076.71 439.466 2051.65 461.978 2011.18 461.978C1962.02 461.978 1934.82 427.014 1934.82 380.776C1934.82 333.327 1960.68 296.199 2012.39 296.199C2048.89 296.199 2079.93 314.452 2083.27 353.087H2048.73ZM2112.6 240.558H2147.3V364.031L2210.12 300.459H2252.72L2192.49 358.264L2258.52 457.718H2216.02L2167.98 381.366L2147.3 401.454V457.718H2112.6V240.558ZM2267.76 378.941C2267.76 330.902 2296.66 296.199 2347.12 296.199C2397.59 296.199 2426.39 330.902 2426.39 378.941C2426.39 426.981 2397.49 461.978 2346.99 461.978C2296.5 461.978 2267.76 427.308 2267.76 378.941ZM2391.85 378.941C2391.85 351.874 2378.16 323.594 2347.12 323.594C2316.09 323.594 2302.43 351.874 2302.43 378.941C2302.43 406.009 2316.12 434.649 2347.12 434.649C2378.12 434.649 2391.85 406.336 2391.85 378.941Z" fill="white"/>
<path d="M695.465 375.107C695.737 436.617 677.763 496.826 643.817 548.121C609.87 599.416 561.476 639.494 504.753 663.285C448.03 687.077 385.525 693.514 325.144 681.783C264.762 670.052 209.215 640.68 165.526 597.381C121.838 554.082 91.9692 498.8 79.6981 438.526C67.4271 378.252 73.3044 315.692 96.587 258.758C119.87 201.825 159.512 153.073 210.501 118.669C261.49 84.2641 321.535 65.7518 383.045 65.4725C465.534 65.1067 544.79 97.5225 603.379 155.589C661.968 213.657 695.093 292.619 695.465 375.107Z" fill="#8DC63F"/>
<path d="M672.036 375.173C672.295 432.05 655.681 487.727 624.297 535.162C592.913 582.598 548.167 619.662 495.719 641.667C443.27 663.672 385.474 669.631 329.639 658.789C273.804 647.947 222.438 620.791 182.036 580.756C141.634 540.721 114.012 489.605 102.661 433.871C91.3105 378.137 96.7418 320.289 118.268 267.642C139.794 214.994 176.449 169.913 223.596 138.098C270.744 106.282 326.267 89.1622 383.144 88.9024C420.91 88.7299 458.34 95.9977 493.297 110.291C528.254 124.584 560.053 145.623 586.879 172.205C613.706 198.788 635.033 230.394 649.644 265.22C664.256 300.045 671.864 337.407 672.036 375.173Z" fill="#F9E988"/>
<path d="M389.698 107.548C407.98 104.284 426.697 104.284 444.979 107.548C463.437 110.473 481.278 116.453 497.77 125.243C514.155 134.255 528.344 146.478 542.434 158.012C556.525 169.547 570.583 181.213 583.953 194.058C597.585 206.688 609.486 221.068 619.343 236.822C629.507 252.47 637.831 269.238 644.149 286.795C656.443 321.862 659.943 359.41 654.341 396.145H652.506C647.108 361.05 638.081 326.611 625.569 293.381C619.573 276.948 612.513 260.923 604.433 245.407C595.942 229.937 586.6 214.949 576.449 200.514C566.094 185.903 553.407 173.094 538.895 162.6C524.313 152.212 507.535 145.462 491.282 139.072C475.028 132.682 458.775 126.325 441.899 121.442C425.023 116.56 407.754 112.922 389.763 109.383L389.698 107.548Z" fill="white"/>
<path d="M530.277 273.589C509.403 267.526 487.677 258.974 465.853 250.323C464.608 244.818 459.725 237.969 449.895 229.613C435.575 217.193 408.704 217.521 385.471 223.059C359.845 217.029 334.515 214.899 310.102 220.732C111.358 275.457 224.083 409.253 151.074 543.606C161.462 565.627 273.433 694.343 435.444 659.707C435.444 659.707 380.064 526.566 505.078 462.666C606.498 410.662 679.802 314.386 530.277 273.589Z" fill="#8BC53F"/>
<path d="M554.821 361.115C554.84 363.503 554.15 365.842 552.839 367.838C551.527 369.833 549.652 371.394 547.453 372.323C545.253 373.251 542.827 373.506 540.482 373.055C538.137 372.603 535.979 371.466 534.282 369.787C532.584 368.107 531.423 365.962 530.946 363.622C530.469 361.283 530.698 358.854 531.602 356.644C532.507 354.434 534.047 352.543 536.028 351.209C538.009 349.876 540.341 349.161 542.729 349.154C544.308 349.146 545.874 349.448 547.336 350.045C548.799 350.641 550.129 351.52 551.252 352.63C552.375 353.741 553.268 355.062 553.88 356.518C554.493 357.973 554.812 359.536 554.821 361.115Z" fill="white"/>
<path d="M385.471 222.993C399.955 224.042 452.352 241.147 465.853 250.323C454.679 217.554 416.7 213.294 385.471 222.993Z" fill="#009345"/>
<path d="M399.266 305.637C399.266 316.655 395.999 327.425 389.878 336.586C383.757 345.747 375.056 352.888 364.877 357.104C354.698 361.32 343.497 362.423 332.691 360.274C321.885 358.124 311.959 352.819 304.168 345.028C296.377 337.237 291.071 327.311 288.922 316.505C286.773 305.699 287.876 294.498 292.092 284.319C296.308 274.139 303.449 265.439 312.61 259.318C321.771 253.197 332.541 249.93 343.559 249.93C358.333 249.93 372.503 255.799 382.95 266.246C393.397 276.693 399.266 290.862 399.266 305.637Z" fill="white"/>
<path d="M382.783 306.128C382.79 313.868 380.501 321.436 376.205 327.875C371.91 334.313 365.802 339.333 358.653 342.3C351.504 345.266 343.636 346.046 336.044 344.54C328.452 343.034 321.477 339.31 316.002 333.839C310.527 328.369 306.797 321.397 305.285 313.806C303.773 306.216 304.546 298.347 307.506 291.196C310.466 284.045 315.481 277.932 321.916 273.631C328.351 269.331 335.917 267.035 343.657 267.035C354.026 267.044 363.968 271.164 371.302 278.493C378.637 285.821 382.766 295.76 382.783 306.128Z" fill="#58595B"/>
<path d="M599.879 385.626C554.821 417.379 503.57 441.334 430.889 441.334C396.874 441.334 389.993 405.288 367.513 422.917C355.88 432.06 315.083 452.41 282.477 450.968C249.872 449.526 197.278 430.356 182.696 361.049C176.896 430.356 173.914 481.41 147.895 539.936C199.736 622.94 323.308 686.938 435.443 659.412C423.417 575.261 496.951 492.814 538.404 450.64C554.067 434.682 584.28 408.597 599.879 385.495V385.626Z" fill="#8BC53F"/>
<path d="M598.109 387.723C583.754 400.069 567.738 410.338 550.528 418.231C533.374 426.382 515.491 432.899 497.115 437.696C478.764 442.448 459.561 446.02 440.129 444.25C420.697 442.481 400.806 435.861 387.994 421.312L388.616 420.591C404.476 430.848 422.598 434.452 440.686 434.976C459.052 435.51 477.419 433.982 495.443 430.422C513.653 426.626 531.469 421.141 548.66 414.037C566.129 407.366 582.576 398.277 597.519 387.035L598.109 387.723Z" fill="#58595B"/>
</g>
<defs>
<clipPath id="clip0_155_328">
<rect width="2500" height="753" fill="white"/>
</clipPath>
</defs>
</svg>
