<svg width="3446" height="823" viewBox="0 0 3446 823" fill="none" xmlns="http://www.w3.org/2000/svg">
<path fill-rule="evenodd" clip-rule="evenodd" d="M506.946 491.514C496.684 500.087 484.369 502.944 476.16 494.372C463.845 485.799 457.688 462.938 457.688 434.361V342.917C457.688 300.052 445.373 268.618 424.849 260.045C389.958 245.757 363.277 305.767 353.015 328.628L291.443 468.653V297.194C291.443 257.188 281.181 234.326 264.761 228.611C252.447 222.896 236.027 225.753 219.608 260.045L82.0965 568.67C63.6248 520.09 53.3627 465.795 53.3627 408.642C53.3627 222.896 160.088 71.441 291.443 71.441C422.797 71.441 529.522 225.753 529.522 411.5C531.575 448.649 523.365 477.226 506.946 491.514ZM582.885 411.5C582.885 182.889 451.531 0 291.443 0C131.354 0 0 185.747 0 411.5C0 637.253 131.354 823 291.443 823C365.329 823 435.111 782.993 490.527 711.552C500.789 697.264 502.841 674.403 492.579 657.257C482.317 642.969 465.898 640.111 455.636 654.399C412.535 711.552 353.015 745.844 293.495 745.844C223.713 745.844 160.088 702.979 114.935 634.396L240.132 354.347V482.941C240.132 545.809 256.552 565.812 270.918 571.528C285.285 577.243 307.862 574.385 330.438 520.09L398.168 365.778C400.22 360.063 402.273 357.205 404.325 351.49V428.646C404.325 485.799 420.745 531.521 449.478 554.382C476.16 574.385 508.998 574.385 535.68 548.667C568.518 528.663 584.938 474.368 582.885 411.5ZM989.263 271.476C995.42 277.191 1001.58 291.479 1001.58 302.91C1001.58 322.913 989.263 337.201 976.948 337.201C972.843 337.201 970.791 337.201 966.686 334.344C950.267 317.198 931.795 308.625 911.271 308.625C862.013 308.625 829.175 362.92 829.175 431.503C829.175 500.087 862.013 554.382 911.271 554.382C935.9 554.382 956.424 540.094 972.843 520.09C976.948 517.233 983.106 514.375 987.21 514.375C999.525 514.375 1009.79 528.663 1009.79 548.667C1009.79 560.097 1003.63 571.528 997.472 577.243C974.896 605.82 942.057 622.965 909.219 622.965C835.332 622.965 773.759 537.236 773.759 431.503C773.759 325.771 835.332 240.042 909.219 240.042C942.057 237.184 968.739 248.615 989.263 271.476ZM1126.77 351.49C1178.08 351.49 1221.19 411.5 1221.19 485.799C1221.19 560.097 1178.08 622.965 1126.77 622.965C1073.41 622.965 1028.26 560.097 1028.26 485.799C1028.26 411.5 1073.41 351.49 1126.77 351.49ZM1126.77 554.382C1149.35 554.382 1167.82 525.805 1167.82 485.799C1167.82 445.792 1149.35 420.073 1126.77 420.073C1102.15 420.073 1081.62 445.792 1081.62 485.799C1081.62 525.805 1102.15 554.382 1126.77 554.382ZM1251.97 580.101V391.497C1251.97 371.493 1264.29 354.347 1278.65 354.347C1293.02 354.347 1305.33 371.493 1305.33 391.497V580.101C1305.33 600.104 1293.02 617.25 1278.65 617.25C1264.29 617.25 1251.97 600.104 1251.97 580.101ZM1247.87 282.906C1247.87 257.188 1262.23 240.042 1278.65 240.042C1295.07 240.042 1309.44 260.045 1309.44 282.906C1309.44 305.767 1295.07 325.771 1278.65 325.771C1262.23 325.771 1247.87 305.767 1247.87 282.906ZM1405.9 477.226V580.101C1405.9 600.104 1393.59 617.25 1379.22 617.25C1364.85 617.25 1352.54 600.104 1352.54 580.101V382.924C1352.54 365.778 1362.8 354.347 1373.06 354.347C1383.33 354.347 1393.59 368.635 1393.59 382.924C1414.11 354.347 1434.64 351.49 1451.06 351.49C1504.42 351.49 1526.99 405.785 1526.99 468.653V580.101C1526.99 600.104 1514.68 617.25 1500.31 617.25C1485.95 617.25 1473.63 600.104 1473.63 580.101V477.226C1473.63 445.792 1471.58 417.215 1436.69 417.215C1416.16 417.215 1405.9 445.792 1405.9 477.226ZM1701.45 517.233C1695.29 517.233 1691.19 514.375 1687.08 508.66L1625.51 414.358V580.101C1625.51 600.104 1613.2 617.25 1598.83 617.25C1584.46 617.25 1572.15 600.104 1572.15 580.101V251.472C1574.2 245.757 1578.31 242.899 1582.41 242.899C1586.51 242.899 1590.62 248.615 1592.67 251.472L1691.19 405.785C1693.24 411.5 1697.34 414.358 1699.4 414.358C1701.45 414.358 1705.55 411.5 1707.61 405.785L1806.12 251.472C1808.18 248.615 1812.28 242.899 1816.38 242.899C1820.49 242.899 1824.59 245.757 1826.65 251.472V580.101C1826.65 600.104 1814.33 617.25 1799.97 617.25C1785.6 617.25 1773.28 600.104 1773.28 580.101V414.358L1711.71 508.66C1709.66 511.517 1705.55 517.233 1701.45 517.233ZM1953.9 554.382C1978.53 554.382 1997 525.805 1997 485.799C1997 445.792 1976.47 420.073 1953.9 420.073C1931.32 420.073 1912.85 445.792 1912.85 485.799C1912.85 522.948 1931.32 554.382 1953.9 554.382ZM2011.36 588.673V580.101C2001.1 608.677 1968.26 620.108 1947.74 620.108C1898.48 620.108 1861.54 557.24 1861.54 482.941C1861.54 408.642 1898.48 348.632 1949.79 348.632C1958 348.632 1988.79 351.489 2011.36 388.639V380.066C2011.36 362.92 2019.57 351.49 2031.89 351.49C2042.15 351.49 2052.41 365.778 2052.41 380.066V585.816C2052.41 602.962 2042.15 614.392 2031.89 614.392C2019.57 617.25 2011.36 605.819 2011.36 588.673ZM2198.13 417.215H2191.98C2159.14 420.073 2152.98 445.792 2152.98 477.226V580.101C2152.98 600.104 2140.67 617.25 2126.3 617.25C2111.93 617.25 2099.62 600.104 2099.62 580.101V382.924C2099.62 365.778 2109.88 354.347 2120.14 354.347C2130.4 354.347 2140.67 368.635 2140.67 382.924C2161.19 357.205 2175.56 351.49 2191.98 351.49H2198.13C2210.45 351.49 2222.76 365.778 2222.76 385.781C2220.71 402.927 2210.45 417.215 2198.13 417.215ZM2401.32 562.955C2403.37 568.67 2405.43 574.385 2405.43 580.101C2405.43 600.104 2393.11 617.25 2378.75 617.25C2368.48 617.25 2362.33 608.677 2356.17 597.247L2294.6 500.087V580.101C2294.6 600.104 2282.28 617.25 2267.92 617.25C2253.55 617.25 2241.23 600.104 2241.23 580.101V280.049C2241.23 260.045 2253.55 242.899 2267.92 242.899C2282.28 242.899 2294.6 260.045 2294.6 280.049V468.653L2356.17 374.351C2362.33 365.778 2370.54 354.347 2378.75 354.347C2391.06 354.347 2403.37 371.493 2403.37 391.497C2403.37 397.212 2403.37 402.927 2399.27 408.642L2352.06 482.941L2401.32 562.955ZM2503.94 420.073C2489.58 420.073 2467 431.504 2467 462.938H2542.94C2542.94 428.646 2518.31 420.073 2503.94 420.073ZM2573.72 508.66H2467C2467 551.524 2497.79 560.097 2510.1 560.097C2520.36 560.097 2534.73 557.24 2544.99 551.524C2549.1 548.667 2553.2 545.809 2559.36 545.809C2571.67 545.809 2579.88 560.097 2579.88 577.243C2579.88 588.674 2573.72 597.246 2567.57 602.962C2551.15 620.108 2530.62 622.965 2510.1 622.965C2456.74 622.965 2411.58 582.958 2411.58 488.656C2411.58 414.358 2438.27 351.49 2501.89 351.49C2553.2 351.49 2592.2 397.212 2592.2 480.083C2594.25 494.372 2586.04 508.66 2573.72 508.66ZM2721.5 620.108H2707.13C2666.08 620.108 2643.51 594.389 2643.51 508.66V417.215H2629.14C2616.83 417.215 2604.51 400.069 2604.51 382.924C2604.51 362.92 2614.77 348.632 2629.14 348.632H2643.51V280.049C2643.51 260.045 2655.82 242.899 2670.19 242.899C2684.56 242.899 2696.87 260.045 2696.87 280.049V348.632H2719.45C2731.76 348.632 2744.08 362.92 2744.08 382.924C2744.08 400.069 2733.81 417.215 2719.45 417.215H2696.87V494.372C2696.87 545.809 2698.92 554.382 2715.34 554.382H2723.55C2735.87 554.382 2746.13 568.67 2746.13 588.673C2744.08 605.819 2733.81 620.108 2721.5 620.108ZM2976 271.476C2982.15 277.191 2988.31 291.479 2988.31 302.91C2988.31 322.913 2976 337.201 2963.68 337.201C2959.58 337.201 2957.53 337.201 2953.42 334.344C2937 317.198 2918.53 308.625 2898.01 308.625C2848.75 308.625 2815.91 362.92 2815.91 431.503C2815.91 500.087 2848.75 554.382 2898.01 554.382C2922.63 554.382 2943.16 540.094 2959.58 520.09C2963.68 517.233 2969.84 514.375 2973.95 514.375C2986.26 514.375 2996.52 528.663 2996.52 548.667C2996.52 560.097 2990.36 571.528 2984.21 577.243C2961.63 605.82 2928.79 622.965 2895.95 622.965C2822.07 622.965 2760.49 537.236 2760.49 431.503C2760.49 325.771 2822.07 240.042 2895.95 240.042C2928.79 237.184 2955.47 248.615 2976 271.476ZM3111.46 554.382C3136.09 554.382 3154.56 525.805 3154.56 485.799C3154.56 445.792 3134.03 420.073 3111.46 420.073C3088.88 420.073 3070.41 445.792 3070.41 485.799C3068.36 522.948 3086.83 554.382 3111.46 554.382ZM3166.87 588.673V580.101C3156.61 608.677 3123.77 620.108 3103.25 620.108C3053.99 620.108 3017.05 557.24 3017.05 482.941C3017.05 408.642 3053.99 348.632 3105.3 348.632C3113.51 348.632 3144.3 351.489 3166.87 388.639V380.066C3166.87 362.92 3175.08 351.49 3187.4 351.49C3197.66 351.49 3207.92 365.778 3207.92 380.066V585.816C3207.92 602.962 3197.66 614.392 3187.4 614.392C3175.08 617.25 3166.87 605.819 3166.87 588.673ZM3353.64 554.382C3376.22 554.382 3394.69 522.948 3394.69 485.799C3394.69 445.792 3376.22 420.073 3353.64 420.073C3331.06 420.073 3310.54 445.792 3310.54 485.799C3308.49 525.805 3329.01 554.382 3353.64 554.382ZM3308.49 600.104V694.406C3308.49 714.41 3296.17 731.555 3281.81 731.555C3267.44 731.555 3255.13 714.41 3255.13 694.406V382.924C3255.13 365.778 3265.39 354.347 3275.65 354.347C3285.91 354.347 3296.17 368.635 3296.17 385.781C3316.7 357.205 3339.27 351.49 3357.75 351.49C3409.06 351.49 3446 411.5 3446 485.799C3446 560.097 3409.06 622.965 3359.8 622.965C3345.43 620.108 3322.86 614.392 3308.49 600.104Z" fill="white"/>
</svg>
