<svg width="3613" height="685" viewBox="0 0 3613 685" fill="none" xmlns="http://www.w3.org/2000/svg">
<path fill-rule="evenodd" clip-rule="evenodd" d="M531.513 409.097C520.754 416.233 507.843 418.611 499.235 411.476C486.324 404.34 479.868 385.313 479.868 361.528V285.417C479.868 249.74 466.957 223.576 445.438 216.441C408.857 204.549 380.882 254.496 370.123 273.524L305.566 390.069V247.361C305.566 214.063 294.807 195.035 277.592 190.278C264.681 185.521 247.466 187.899 230.251 216.441L86.0751 473.316C66.7082 432.882 55.9488 387.691 55.9488 340.122C55.9488 185.521 167.846 59.4618 305.566 59.4618C443.287 59.4618 555.184 187.899 555.184 342.5C557.336 373.42 548.728 397.205 531.513 409.097ZM611.133 342.5C611.133 152.222 473.413 0 305.566 0C137.72 0 0 154.601 0 342.5C0 530.399 137.72 685 305.566 685C383.034 685 456.198 651.701 514.298 592.24C525.058 580.347 527.21 561.319 516.45 547.049C505.691 535.156 488.476 532.778 477.717 544.67C432.527 592.24 370.123 620.781 307.718 620.781C234.554 620.781 167.846 585.104 120.505 528.021L251.77 294.931V401.962C251.77 454.288 268.985 470.937 284.048 475.694C299.111 480.451 322.781 478.073 346.452 432.882L417.464 304.444C419.616 299.688 421.768 297.309 423.92 292.552V356.771C423.92 404.34 441.135 442.396 471.261 461.424C499.235 478.073 533.665 478.073 561.64 456.667C596.07 440.017 613.285 394.826 611.133 342.5ZM1037.2 225.955C1043.66 230.712 1050.12 242.604 1050.12 252.118C1050.12 268.767 1037.2 280.66 1024.29 280.66C1019.99 280.66 1017.84 280.66 1013.53 278.281C996.319 264.01 976.952 256.875 955.433 256.875C903.788 256.875 869.358 302.066 869.358 359.149C869.358 416.233 903.788 461.424 955.433 461.424C981.256 461.424 1002.77 449.531 1019.99 432.882C1024.29 430.504 1030.75 428.125 1035.05 428.125C1047.96 428.125 1058.72 440.017 1058.72 456.667C1058.72 466.181 1052.27 475.694 1045.81 480.451C1022.14 504.236 987.711 518.507 953.281 518.507C875.814 518.507 811.257 447.153 811.257 359.149C811.257 271.146 875.814 199.792 953.281 199.792C987.711 197.413 1015.69 206.927 1037.2 225.955ZM1181.38 292.552C1235.18 292.552 1280.37 342.5 1280.37 404.34C1280.37 466.18 1235.18 518.507 1181.38 518.507C1125.43 518.507 1078.09 466.18 1078.09 404.34C1078.09 342.5 1125.43 292.552 1181.38 292.552ZM1181.38 461.424C1205.05 461.424 1224.42 437.639 1224.42 404.34C1224.42 371.042 1205.05 349.635 1181.38 349.635C1155.56 349.635 1134.04 371.042 1134.04 404.34C1134.04 437.639 1155.56 461.424 1181.38 461.424ZM1312.64 482.83V325.851C1312.64 309.201 1325.56 294.931 1340.62 294.931C1355.68 294.931 1368.59 309.201 1368.59 325.851V482.83C1368.59 499.479 1355.68 513.75 1340.62 513.75C1325.56 513.75 1312.64 499.479 1312.64 482.83ZM1308.34 235.469C1308.34 214.063 1323.4 199.792 1340.62 199.792C1357.83 199.792 1372.9 216.441 1372.9 235.469C1372.9 254.497 1357.83 271.146 1340.62 271.146C1323.4 271.146 1308.34 254.497 1308.34 235.469ZM1474.04 397.205V482.83C1474.04 499.479 1461.12 513.75 1446.06 513.75C1431 513.75 1418.09 499.479 1418.09 482.83V318.715C1418.09 304.444 1428.85 294.931 1439.61 294.931C1450.36 294.931 1461.12 306.823 1461.12 318.715C1482.64 294.931 1504.16 292.552 1521.38 292.552C1577.33 292.552 1601 337.743 1601 390.069V482.83C1601 499.479 1588.08 513.75 1573.02 513.75C1557.96 513.75 1545.05 499.479 1545.05 482.83V397.205C1545.05 371.042 1542.9 347.257 1506.31 347.257C1484.79 347.257 1474.04 371.042 1474.04 397.205ZM1783.91 430.503C1777.45 430.503 1773.15 428.125 1768.84 423.368L1704.29 344.878V482.83C1704.29 499.479 1691.37 513.75 1676.31 513.75C1661.25 513.75 1648.34 499.479 1648.34 482.83V209.306C1650.49 204.549 1654.79 202.17 1659.1 202.17C1663.4 202.17 1667.7 206.927 1669.86 209.306L1773.15 337.743C1775.3 342.5 1779.6 344.878 1781.75 344.878C1783.91 344.878 1788.21 342.5 1790.36 337.743L1893.65 209.306C1895.8 206.927 1900.11 202.17 1904.41 202.17C1908.71 202.17 1913.02 204.549 1915.17 209.306V482.83C1915.17 499.479 1902.26 513.75 1887.2 513.75C1872.13 513.75 1859.22 499.479 1859.22 482.83V344.878L1794.66 423.368C1792.51 425.747 1788.21 430.503 1783.91 430.503ZM2048.59 461.424C2074.41 461.424 2093.78 437.639 2093.78 404.34C2093.78 371.042 2072.26 349.635 2048.59 349.635C2024.92 349.635 2005.55 371.042 2005.55 404.34C2005.55 435.26 2024.92 461.424 2048.59 461.424ZM2108.84 489.965V482.83C2098.08 506.615 2063.65 516.129 2042.13 516.129C1990.49 516.129 1951.75 463.802 1951.75 401.962C1951.75 340.122 1990.49 290.174 2044.28 290.174C2052.89 290.174 2085.17 292.552 2108.84 323.472V316.337C2108.84 302.066 2117.45 292.552 2130.36 292.552C2141.12 292.552 2151.88 304.444 2151.88 316.337V487.587C2151.88 501.858 2141.12 511.371 2130.36 511.371C2117.45 513.75 2108.84 504.236 2108.84 489.965ZM2304.66 347.257H2298.2C2263.77 349.635 2257.32 371.042 2257.32 397.205V482.83C2257.32 499.479 2244.41 513.75 2229.34 513.75C2214.28 513.75 2201.37 499.479 2201.37 482.83V318.715C2201.37 304.444 2212.13 294.931 2222.89 294.931C2233.65 294.931 2244.41 306.823 2244.41 318.715C2265.93 297.309 2280.99 292.552 2298.2 292.552H2304.66C2317.57 292.552 2330.48 304.444 2330.48 321.094C2328.33 335.365 2317.57 347.257 2304.66 347.257ZM2517.7 468.559C2519.85 473.316 2522 478.073 2522 482.83C2522 499.479 2509.09 513.75 2494.02 513.75C2483.27 513.75 2476.81 506.615 2470.35 497.101L2405.8 416.233V482.83C2405.8 499.479 2392.89 513.75 2377.82 513.75C2362.76 513.75 2349.85 499.479 2349.85 482.83V233.09C2349.85 216.441 2362.76 202.17 2377.82 202.17C2392.89 202.17 2405.8 216.441 2405.8 233.09V390.069L2470.35 311.58C2476.81 304.444 2485.42 294.931 2494.02 294.931C2506.94 294.931 2519.85 309.201 2519.85 325.851C2519.85 330.608 2519.85 335.365 2515.54 340.122L2466.05 401.962L2517.7 468.559ZM2625.29 349.635C2610.23 349.635 2586.56 359.149 2586.56 385.313H2666.17C2666.17 356.771 2640.35 349.635 2625.29 349.635ZM2698.45 423.368H2586.56C2586.56 459.045 2618.83 466.18 2631.74 466.18C2642.5 466.18 2657.57 463.802 2668.33 459.045C2672.63 456.667 2676.93 454.288 2683.39 454.288C2696.3 454.288 2704.91 466.181 2704.91 480.451C2704.91 489.965 2698.45 497.101 2692 501.858C2674.78 516.128 2653.26 518.507 2631.74 518.507C2575.8 518.507 2528.45 485.208 2528.45 406.719C2528.45 344.878 2556.43 292.552 2623.14 292.552C2676.93 292.552 2717.82 330.608 2717.82 399.583C2719.97 411.476 2711.36 423.368 2698.45 423.368ZM2853.39 516.129H2838.32C2795.29 516.129 2771.62 494.722 2771.62 423.368V347.257H2756.55C2743.64 347.257 2730.73 332.986 2730.73 318.715C2730.73 302.066 2741.49 290.174 2756.55 290.174H2771.62V233.09C2771.62 216.441 2784.53 202.17 2799.59 202.17C2814.65 202.17 2827.57 216.441 2827.57 233.09V290.174H2851.24C2864.15 290.174 2877.06 302.066 2877.06 318.715C2877.06 332.986 2866.3 347.257 2851.24 347.257H2827.57V411.476C2827.57 454.288 2829.72 461.424 2846.93 461.424H2855.54C2868.45 461.424 2879.21 473.316 2879.21 489.965C2877.06 504.236 2866.3 516.129 2853.39 516.129ZM3120.22 225.955C3126.68 230.712 3133.13 242.604 3133.13 252.118C3133.13 268.767 3120.22 280.66 3107.31 280.66C3103.01 280.66 3100.85 280.66 3096.55 278.281C3079.33 264.01 3059.97 256.875 3038.45 256.875C2986.8 256.875 2952.37 302.066 2952.37 359.149C2952.37 416.233 2986.8 461.424 3038.45 461.424C3064.27 461.424 3085.79 449.531 3103.01 432.882C3107.31 430.504 3113.76 428.125 3118.07 428.125C3130.98 428.125 3141.74 440.017 3141.74 456.667C3141.74 466.181 3135.28 475.694 3128.83 480.451C3105.16 504.236 3070.73 518.507 3036.3 518.507C2958.83 518.507 2894.27 447.153 2894.27 359.149C2894.27 271.146 2958.83 199.792 3036.3 199.792C3070.73 197.413 3098.7 206.927 3120.22 225.955ZM3262.24 461.424C3288.07 461.424 3307.43 437.639 3307.43 404.34C3307.43 371.042 3285.91 349.635 3262.24 349.635C3238.57 349.635 3219.21 371.042 3219.21 404.34C3217.05 435.26 3236.42 461.424 3262.24 461.424ZM3320.35 489.965V482.83C3309.59 506.615 3275.16 516.129 3253.64 516.129C3201.99 516.129 3163.26 463.802 3163.26 401.962C3163.26 340.122 3201.99 290.174 3255.79 290.174C3264.4 290.174 3296.67 292.552 3320.35 323.472V316.337C3320.35 302.066 3328.95 292.552 3341.86 292.552C3352.62 292.552 3363.38 304.444 3363.38 316.337V487.587C3363.38 501.858 3352.62 511.371 3341.86 511.371C3328.95 513.75 3320.35 504.236 3320.35 489.965ZM3516.17 461.424C3539.84 461.424 3559.2 435.26 3559.2 404.34C3559.2 371.042 3539.84 349.635 3516.17 349.635C3492.5 349.635 3470.98 371.042 3470.98 404.34C3468.82 437.639 3490.34 461.424 3516.17 461.424ZM3468.82 499.479V577.969C3468.82 594.618 3455.91 608.889 3440.85 608.889C3425.79 608.889 3412.88 594.618 3412.88 577.969V318.715C3412.88 304.444 3423.63 294.931 3434.39 294.931C3445.15 294.931 3455.91 306.823 3455.91 321.094C3477.43 297.309 3501.1 292.552 3520.47 292.552C3574.27 292.552 3613 342.5 3613 404.34C3613 466.18 3574.27 518.507 3522.62 518.507C3507.56 516.128 3483.89 511.371 3468.82 499.479Z" fill="white"/>
</svg>
