<svg width="2677" height="883" viewBox="0 0 2677 883" fill="none" xmlns="http://www.w3.org/2000/svg">
<path fill-rule="evenodd" clip-rule="evenodd" d="M902.899 531.001L870.718 475.354H823.677V531.001H795.965V363.836H879.434C889.602 363.725 899.659 366.507 908.374 371.738C917.09 376.969 924.241 384.426 929.046 393.44C933.851 402.455 935.974 412.583 935.415 422.711C934.857 432.839 931.504 442.744 925.694 451.091C919.66 459.995 911.168 466.895 901.223 471.013L935.415 531.001H902.899ZM879.322 392.216H823.677V447.752H879.434C883.122 447.752 886.697 446.973 890.049 445.526C893.401 444.08 896.418 441.965 898.877 439.294C902.676 435.399 905.358 430.502 906.363 425.048C907.369 419.706 906.81 414.141 904.799 409.022C902.676 404.013 899.212 399.673 894.631 396.557C890.049 393.44 884.798 391.771 879.322 391.771V392.216ZM1176.1 363.836L1092.41 531.001H1123.47L1175.99 426.272L1228.39 531.001H1259.46L1176.1 363.836ZM1528.3 363.836H1492.88L1445.28 425.493L1397.9 363.836H1362.37L1432.09 452.983V531.001H1459.81V451.648L1528.3 363.836ZM1670.32 363.836H1725.85C1747.98 363.947 1769.1 372.851 1784.63 388.543C1800.27 404.125 1809.1 425.382 1809.21 447.419C1809.1 469.566 1800.27 490.712 1784.63 506.405C1768.99 522.097 1747.87 530.89 1725.74 531.001H1670.21V363.836H1670.32ZM1725.85 502.621C1740.6 502.621 1754.68 496.722 1765.08 486.26C1775.47 475.799 1781.39 461.664 1781.39 446.973C1781.17 432.282 1775.36 418.148 1764.96 407.797C1754.57 397.447 1740.49 391.437 1725.85 391.326H1697.81V502.621H1725.85ZM1994.59 363.836H1966.88V531.001H1994.59V363.836ZM2291.14 461.219C2291.25 470.457 2289.58 479.583 2286 488.041C2282.54 496.5 2277.29 504.179 2270.58 510.523C2260.86 520.317 2248.46 526.883 2234.94 529.554C2221.42 532.225 2207.45 530.89 2194.71 525.548C2181.97 520.317 2171.13 511.302 2163.54 499.838C2155.94 488.375 2151.91 474.908 2151.91 461.108V363.836H2179.63V461.108C2179.63 472.237 2183.98 482.81 2191.92 490.601C2199.74 498.392 2210.35 502.843 2221.42 502.843C2232.48 502.843 2243.09 498.392 2250.92 490.601C2258.74 482.81 2263.09 472.126 2263.09 461.108V363.836H2291.03V461.219H2291.14ZM2476.29 531.001V431.058L2532.16 486.817L2587.81 431.058V531.001H2615.97V363.836L2532.16 447.419L2448.69 363.836V531.001H2476.29Z" fill="white"/>
<path d="M624.325 361.334V602.218L356.704 756.911L88.9752 602.218V292.834L356.813 137.925L562.483 256.911L593.567 239.004L356.813 102.111L58 274.819V620.126L356.813 792.833L655.625 620.126V343.427L624.325 361.334Z" fill="url(#paint0_linear_155_341)"/>
<path d="M281.866 602.435H237.136V452.057H386.38C400.459 451.949 413.997 446.232 423.961 436.092C433.926 426.059 439.449 412.467 439.557 398.336C439.666 391.324 438.258 384.42 435.55 377.947C432.842 371.475 428.835 365.649 423.853 360.795C418.979 355.833 413.131 351.841 406.741 349.145C400.351 346.448 393.42 345.045 386.38 345.153H237.136V299.414H386.488C412.589 299.522 437.716 310.094 456.128 328.541C474.648 347.095 485.045 372.122 485.262 398.336C485.37 418.4 479.305 437.926 467.825 454.323C457.211 469.964 442.265 482.262 424.828 489.598C407.499 495.099 389.521 497.796 371.434 497.688H281.866V602.435Z" fill="url(#paint1_linear_155_341)"/>
<path d="M484.176 598.66H431.973L391.684 528.325C407.605 527.354 423.309 524.118 438.363 518.724L484.176 598.66Z" fill="url(#paint2_linear_155_341)"/>
<path d="M593.132 311.281L623.999 328.433L654.866 311.281V274.927L623.999 257.02L593.132 274.927V311.281Z" fill="url(#paint3_linear_155_341)"/>
<defs>
<linearGradient id="paint0_linear_155_341" x1="673.744" y1="321.944" x2="39.949" y2="575.053" gradientUnits="userSpaceOnUse">
<stop stop-color="#C200FB"/>
<stop offset="0.4897" stop-color="#3772FF"/>
<stop offset="0.4898" stop-color="#3773FE"/>
<stop offset="1" stop-color="#5AC4BE"/>
</linearGradient>
<linearGradient id="paint1_linear_155_341" x1="661.635" y1="291.627" x2="27.8419" y2="544.737" gradientUnits="userSpaceOnUse">
<stop stop-color="#C200FB"/>
<stop offset="0.4897" stop-color="#3772FF"/>
<stop offset="0.4898" stop-color="#3773FE"/>
<stop offset="1" stop-color="#5AC4BE"/>
</linearGradient>
<linearGradient id="paint2_linear_155_341" x1="724.814" y1="449.839" x2="91.02" y2="702.949" gradientUnits="userSpaceOnUse">
<stop stop-color="#C200FB"/>
<stop offset="0.4897" stop-color="#3772FF"/>
<stop offset="0.4898" stop-color="#3773FE"/>
<stop offset="1" stop-color="#5AC4BE"/>
</linearGradient>
<linearGradient id="paint3_linear_155_341" x1="656.856" y1="279.786" x2="23.0642" y2="532.895" gradientUnits="userSpaceOnUse">
<stop stop-color="#C200FB"/>
<stop offset="0.4897" stop-color="#3772FF"/>
<stop offset="0.4898" stop-color="#3773FE"/>
<stop offset="1" stop-color="#5AC4BE"/>
</linearGradient>
</defs>
</svg>
