<svg width="149" height="32" viewBox="0 0 149 32" fill="none" xmlns="http://www.w3.org/2000/svg">
<path d="M88.3187 28V7.76423H102.542V11.927H93.1175V15.6851H101.024V19.5299H93.1175V23.7938H102.657V28H88.3187Z" fill="#DFDFDF"/>
<path d="M106.25 28V7.18607H110.99V28H106.25Z" fill="#DFDFDF"/>
<path d="M121.984 28.4336C120.374 28.4336 118.953 28.0819 117.72 27.3785C116.486 26.6654 115.518 25.7162 114.814 24.531C114.121 23.3458 113.774 22.0449 113.774 20.6284C113.774 19.5973 113.971 18.6144 114.366 17.6798C114.771 16.7354 115.34 15.9019 116.072 15.1792C116.804 14.4468 117.672 13.8735 118.674 13.4592C119.676 13.0352 120.779 12.8232 121.984 12.8232C123.593 12.8232 125.014 13.1797 126.248 13.8928C127.481 14.5962 128.445 15.5405 129.138 16.7258C129.832 17.911 130.179 19.2119 130.179 20.6284C130.179 21.6594 129.982 22.6471 129.587 23.5915C129.191 24.5262 128.628 25.3549 127.895 26.0776C127.163 26.8003 126.296 27.3736 125.294 27.7976C124.292 28.2216 123.188 28.4336 121.984 28.4336ZM121.984 24.3575C122.658 24.3575 123.265 24.2082 123.805 23.9095C124.345 23.6011 124.769 23.1675 125.077 22.6086C125.385 22.0497 125.539 21.3896 125.539 20.6284C125.539 19.8575 125.385 19.1974 125.077 18.6482C124.778 18.0893 124.359 17.6605 123.819 17.3618C123.28 17.0534 122.668 16.8992 121.984 16.8992C121.3 16.8992 120.688 17.0534 120.148 17.3618C119.608 17.6605 119.184 18.0893 118.876 18.6482C118.568 19.1974 118.414 19.8575 118.414 20.6284C118.414 21.3896 118.568 22.0497 118.876 22.6086C119.194 23.1675 119.623 23.6011 120.162 23.9095C120.702 24.2082 121.309 24.3575 121.984 24.3575Z" fill="#DFDFDF"/>
<path d="M132.956 28V13.2568H137.697V14.8178C138.246 14.124 138.896 13.6181 139.648 13.3002C140.4 12.9822 141.19 12.8232 142.018 12.8232C143.406 12.8232 144.548 13.0978 145.444 13.6471C146.34 14.1867 147 14.8901 147.424 15.7574C147.858 16.615 148.075 17.5256 148.075 18.4892V28H143.334V19.978C143.334 19.0914 143.098 18.3928 142.626 17.8821C142.163 17.3714 141.479 17.116 140.573 17.116C139.995 17.116 139.489 17.2413 139.055 17.4918C138.631 17.7424 138.299 18.0989 138.058 18.5615C137.817 19.0143 137.697 19.5347 137.697 20.1225V28H132.956Z" fill="#DFDFDF"/>
<path d="M45.9418 28.4336C44.0434 28.4336 42.4487 28.0578 41.1574 27.3062C39.8758 26.5546 38.9074 25.5235 38.2522 24.213C37.5969 22.8929 37.2693 21.38 37.2693 19.6744V7.76425H42.0681V19.8479C42.0681 21.2258 42.4101 22.2521 43.0943 22.9266C43.7785 23.5915 44.7276 23.9239 45.9418 23.9239C47.1463 23.9239 48.0858 23.5915 48.7603 22.9266C49.4445 22.2521 49.7865 21.2258 49.7865 19.8479V7.76425H54.5998V19.6744C54.5998 21.3704 54.2721 22.8784 53.6169 24.1986C52.9616 25.5091 51.9884 26.545 50.6972 27.3062C49.4156 28.0578 47.8304 28.4336 45.9418 28.4336Z" fill="#FF7711"/>
<path d="M58.8445 28V13.2568H63.5855V14.8179C64.1347 14.1241 64.7852 13.6182 65.5368 13.3002C66.2884 12.9822 67.0786 12.8232 67.9073 12.8232C69.2949 12.8232 70.4367 13.0978 71.3329 13.6471C72.229 14.1867 72.8891 14.8901 73.3131 15.7574C73.7467 16.615 73.9635 17.5256 73.9635 18.4892V28H69.2226V19.978C69.2226 19.0915 68.9865 18.3928 68.5143 17.8821C68.0518 17.3714 67.3676 17.1161 66.4619 17.1161C65.8837 17.1161 65.3778 17.2413 64.9442 17.4919C64.5202 17.7424 64.1877 18.0989 63.9468 18.5615C63.7059 19.0144 63.5855 19.5347 63.5855 20.1225V28H58.8445Z" fill="#FF7711"/>
<path d="M77.7591 28V13.2568H82.5V28H77.7591ZM80.1296 11.0742C79.3683 11.0742 78.7034 10.8382 78.1349 10.366C77.576 9.88419 77.2966 9.24339 77.2966 8.44359C77.2966 7.62453 77.576 6.97891 78.1349 6.50674C78.7034 6.03458 79.3683 5.79849 80.1296 5.79849C80.9005 5.79849 81.5653 6.03458 82.1242 6.50674C82.6831 6.97891 82.9626 7.62453 82.9626 8.44359C82.9626 9.24339 82.6831 9.88419 82.1242 10.366C81.5653 10.8382 80.9005 11.0742 80.1296 11.0742Z" fill="#FF7711"/>
<path d="M0 9.06111C0 4.42779 3.81815 0.671722 8.52807 0.671722H22.5266C27.2365 0.671722 31.0546 4.42777 31.0546 9.06109V22.8319C31.0546 27.4652 27.2365 31.2213 22.5266 31.2213H8.52808C3.81816 31.2213 0 27.4652 0 22.8319V9.06111Z" fill="#FF7711"/>
<path fill-rule="evenodd" clip-rule="evenodd" d="M14.1613 5.87369C14.4785 5.83276 14.7912 5.97634 14.9629 6.24186L16.7783 9.04828H26.0286C26.2869 9.04828 26.5303 9.16755 26.6859 9.37043C26.8414 9.57329 26.8912 9.83624 26.8201 10.0806L25.6441 14.1297C25.5934 14.3045 25.4844 14.4573 25.3345 14.5637L20.4754 18.0162L21.8364 24.4434C21.9292 24.8812 21.6435 25.3101 21.1984 25.4013C20.7534 25.4925 20.3174 25.2115 20.2246 24.7737L18.8911 18.477H16.3265C16.031 18.477 15.7582 18.3213 15.6117 18.0689L14.4357 16.0443C14.2102 15.656 14.3472 15.1614 14.7419 14.9394C15.1368 14.7176 15.6396 14.8524 15.8652 15.2408L16.8042 16.8574H19.2943L24.1394 13.415L24.9373 10.6679H16.3265C16.045 10.6679 15.7831 10.5265 15.6319 10.2929L14.5218 8.5767L11.5253 17.9111C11.4172 18.248 11.0995 18.477 10.7403 18.477H8.89708L6.19223 23.7987H14.8565C15.311 23.7987 15.6797 24.1613 15.6797 24.6085C15.6797 25.0558 15.311 25.4184 14.8565 25.4184H4.86023C4.57493 25.4184 4.30996 25.273 4.15996 25.0342C4.00997 24.7955 3.99634 24.4974 4.12393 24.2464L7.65199 17.305C7.79144 17.0307 8.07648 16.8574 8.38829 16.8574H10.137L13.4834 6.43278C13.5797 6.13266 13.8442 5.91463 14.1613 5.87369Z" fill="white"/>
<path d="M18.5613 13.1293C18.5613 13.6564 18.1268 14.0836 17.591 14.0836C17.0552 14.0836 16.6208 13.6564 16.6208 13.1293C16.6208 12.6021 17.0552 12.1748 17.591 12.1748C18.1268 12.1748 18.5613 12.6021 18.5613 13.1293Z" fill="white"/>
</svg>
